<?xml version="1.0"?>
<svg xmlns="http://www.w3.org/2000/svg" xmlns:xlink="http://www.w3.org/1999/xlink" version="1.1" id="Capa_1" x="0px" y="0px" viewBox="0 0 512 512" style="enable-background:new 0 0 512 512;" xml:space="preserve" width="512px" height="512px"><g><g>
	<g>
		<path d="M304.48,440.898c-1.86-1.86-4.43-2.93-7.07-2.93c-2.63,0-5.21,1.07-7.07,2.93s-2.93,4.44-2.93,7.07s1.07,5.21,2.93,7.07    c1.86,1.86,4.44,2.93,7.07,2.93c2.64,0,5.21-1.07,7.07-2.93c1.86-1.86,2.93-4.44,2.93-7.07S306.34,442.758,304.48,440.898z" data-original="#000000" class="active-path" data-old_color="#000000" fill="#06D6A0"/>
	</g>
</g><g>
	<g>
		<path d="M256,93.024c-47.361,0-85.891,38.531-85.891,85.891v1.162c0,47.361,38.531,85.891,85.891,85.891h55.802    c5.523,0,9.999-4.477,9.999-10c0-5.523-4.477-10-10-10h-55.802c-36.332,0-65.891-29.559-65.891-65.891v-1.162    c0-36.332,29.559-65.891,65.891-65.891c36.332,0,65.891,29.559,65.891,65.891v18.423c0,6.523-5.308,11.831-11.831,11.831    c-6.523,0-11.831-5.308-11.831-11.831v-20.81c0-25.17-20.478-45.648-45.648-45.648c-26.439,0-47.948,21.509-47.948,47.948    c0,26.439,21.509,47.948,47.948,47.948h14.302c5.523,0,10-4.477,10-10s-4.477-10-10-10h-14.301    c-15.41,0-27.948-12.538-27.948-27.948c0-15.41,12.537-27.948,27.948-27.948c14.142,0,25.648,11.505,25.648,25.648v20.81    c0,17.552,14.279,31.831,31.831,31.831s31.831-14.279,31.831-31.831v-18.423C341.891,131.554,303.361,93.024,256,93.024z" data-original="#000000" class="active-path" data-old_color="#000000" fill="#06D6A0"/>
	</g>
</g><g>
	<g>
		<path d="M461.07,370.988c-1.86-1.86-4.44-2.93-7.07-2.93s-5.21,1.07-7.07,2.93c-1.86,1.86-2.93,4.44-2.93,7.07    s1.07,5.21,2.93,7.07c1.86,1.86,4.44,2.93,7.07,2.93s5.21-1.07,7.07-2.93s2.93-4.44,2.93-7.07S462.93,372.848,461.07,370.988z" data-original="#000000" class="active-path" data-old_color="#000000" fill="#06D6A0"/>
	</g>
</g><g>
	<g>
		<path d="M507.948,173.929L286.651,10.205c-18.334-13.564-42.969-13.564-61.302,0L4.052,173.929C1.503,175.815,0,178.798,0,181.968    v280c0,27.57,22.43,50,50,50h412c27.57,0,50-22.43,50-50v-280C512,178.798,510.497,175.815,507.948,173.929z M237.245,26.283    c11.218-8.3,26.293-8.3,37.511,0l211.966,156.82l-158.25,158.25l-14.429-14.429c-32.005-32.005-84.082-32.005-116.087,0    l-14.429,14.429L25.278,183.104L237.245,26.283z M36.983,487.897c-0.241,0.241-0.466,0.491-0.677,0.75    C26.634,483.661,20,473.578,20,461.968V206.111l149.385,149.385L36.983,487.897z M61.197,491.968l34-34H259    c5.523,0,10-4.477,10-10s-4.477-10-10-10H115.197l28-28h73.976c5.523,0,10-4.477,10-10s-4.477-10-10-10h-53.976l27.397-27.397    c0.001-0.001,0.003-0.003,0.004-0.004c0.001-0.001,0.003-0.003,0.004-0.004l21.496-21.496c24.208-24.208,63.596-24.208,87.804,0    l21.496,21.496c0.001,0.001,0.002,0.003,0.004,0.004c0.002,0.001,0.003,0.003,0.004,0.004l129.397,129.397H61.197z M492,461.968    c0,11.61-6.634,21.693-16.306,26.678c-0.211-0.258-0.437-0.509-0.677-0.75l-132.402-132.4L444,254.111v83.027    c0,5.523,4.477,10,10,10s10-4.477,10-10V234.111l28-28V461.968z" data-original="#000000" class="active-path" data-old_color="#000000" fill="#06D6A0"/>
	</g>
</g></g> </svg>
