<?xml version="1.0"?>
<svg xmlns="http://www.w3.org/2000/svg" xmlns:xlink="http://www.w3.org/1999/xlink" version="1.1" id="Capa_1" x="0px" y="0px" viewBox="0 0 512.002 512.002" style="enable-background:new 0 0 512.002 512.002;" xml:space="preserve" width="512px" height="512px" class=""><g><g>
	<g>
		<path d="M508.033,154.025L456,114.683V10c0-5.523-4.478-10-10-10H186.002c-5.523,0-10,4.477-10,10s4.477,10,10,10H436v239.37    l-92.705,70.096l-13.741-10.39c-6.033-4.562-13.902-7.075-22.158-7.075h-102.79c-8.256,0-16.126,2.513-22.158,7.074l-13.741,10.39    l-92.706-70.096V20h30.001c5.523,0,10-4.477,10-10s-4.477-10-10-10H66.001c-5.523,0-10,4.477-10,10v104.682L3.969,154.024    C1.47,155.915,0,158.867,0,162.001v320.001c0,16.542,13.458,30,30,30h452.002c16.541,0,29.999-13.458,29.999-30V162.001    C512.001,158.868,510.533,155.915,508.033,154.025z M456,139.757l36.001,27.221v50.05L456,244.247V139.757z M492.001,242.1    v199.803l-132.125-99.901L492.001,242.1z M20,242.1l132.125,99.901L20,441.903V242.1z M56.001,139.756v104.491l-36-27.22v-50.05    L56.001,139.756z M482.002,492.002H30c-5.514,0-10-4.486-10-10v-15.026l174.51-131.949c2.543-1.924,6.223-3.027,10.095-3.027    h102.79c3.872,0,7.552,1.104,10.096,3.027l174.51,131.948v15.026C492.001,487.516,487.516,492.002,482.002,492.002z" data-original="#000000" class="active-path" data-old_color="#000000" fill="#839496"/>
		<path d="M146.006,20c5.523,0,10-4.477,10-10s-4.477-10-10-10h-0.007c-5.523,0-9.996,4.477-9.996,10S140.483,20,146.006,20z" data-original="#000000" class="active-path" data-old_color="#000000" fill="#839496"/>
		<path d="M206.008,452h-0.007c-5.523,0-9.997,4.477-9.997,10s4.481,10,10.004,10s10-4.477,10-10S211.531,452,206.008,452z" data-original="#000000" class="active-path" data-old_color="#000000" fill="#839496"/>
		<path d="M306.001,452h-59.997c-5.523,0-10,4.477-10,10s4.477,10,10,10h59.997c5.522,0,10-4.477,10-10S311.524,452,306.001,452z" data-original="#000000" class="active-path" data-old_color="#000000" fill="#839496"/>
		<path d="M306.001,126c0-5.523-4.478-10-10-10s-10,4.477-10,10v0.027c-8.363-6.292-18.753-10.027-30-10.027    c-27.57,0-50,22.43-50,50s22.43,50,50,50c14.822,0,28.152-6.489,37.316-16.768c7.838,10.938,20.826,17.175,33.198,17.175    c10.932,0,20.85-4.591,27.926-12.929C362.112,194.443,366,181.833,366,166c0-60.654-49.346-110-110-110s-110,49.346-110,110    c0,60.654,49.346,110,110,110c29.381,0,57.004-11.442,77.783-32.218c3.905-3.905,3.905-10.237,0-14.142    c-3.904-3.905-10.234-3.906-14.143,0c-17,16.999-39.601,26.36-63.64,26.36c-49.626,0-90-40.374-90-90s40.374-90,90-90    c49.625,0,90,40.374,90,90c0,10.806-2.354,19.29-6.807,24.536c-4.119,4.853-9.169,5.872-12.679,5.872    c-9.865,0-20.514-7.802-20.514-20.407V126z M256.001,196c-16.542,0-30-13.458-30-30s13.458-30,30-30c16.542,0,30,13.458,30,30    S272.543,196,256.001,196z" data-original="#000000" class="active-path" data-old_color="#000000" fill="#839496"/>
	</g>
</g></g> </svg>
