<?xml version="1.0"?>
<svg xmlns="http://www.w3.org/2000/svg" height="512px" viewBox="-53 0 512 512" width="512px"><g><path d="m361.601562 512h-317.734374c-24.1875 0-43.867188-19.679688-43.867188-43.867188v-424.265624c0-24.1875 19.679688-43.867188 43.867188-43.867188h317.734374c24.1875 0 43.867188 19.679688 43.867188 43.867188v196.464843c0 5.523438-4.480469 10-10 10-5.523438 0-10-4.476562-10-10v-196.464843c0-13.160157-10.707031-23.867188-23.867188-23.867188h-317.734374c-13.160157 0-23.867188 10.707031-23.867188 23.867188v424.265624c0 13.160157 10.707031 23.867188 23.867188 23.867188h317.734374c13.160157 0 23.867188-10.707031 23.867188-23.867188v-138.933593c0-5.523438 4.476562-10 10-10 5.519531 0 10 4.476562 10 10v138.933593c0 24.1875-19.679688 43.867188-43.867188 43.867188zm0 0" data-original="#000000" class="active-path" data-old_color="#000000" fill="#FDF6E3"/><path d="m341.519531 94.84375c-15.742187 0-28.546875-12.808594-28.546875-28.550781 0-15.742188 12.804688-28.546875 28.546875-28.546875 15.742188 0 28.550781 12.804687 28.550781 28.546875 0 15.742187-12.808593 28.550781-28.550781 28.550781zm0-37.097656c-4.714843 0-8.546875 3.832031-8.546875 8.546875 0 4.714843 3.832032 8.550781 8.546875 8.550781 4.714844 0 8.550781-3.835938 8.550781-8.550781 0-4.714844-3.835937-8.546875-8.550781-8.546875zm0 0" data-original="#000000" class="active-path" data-old_color="#000000" fill="#FDF6E3"/><path d="m63.949219 94.84375c-15.742188 0-28.550781-12.808594-28.550781-28.550781 0-15.742188 12.808593-28.546875 28.550781-28.546875 15.742187 0 28.546875 12.804687 28.546875 28.546875 0 15.742187-12.804688 28.550781-28.546875 28.550781zm0-37.097656c-4.714844 0-8.550781 3.832031-8.550781 8.546875 0 4.714843 3.835937 8.550781 8.550781 8.550781 4.710937 0 8.546875-3.835938 8.546875-8.550781 0-4.714844-3.835938-8.546875-8.546875-8.546875zm0 0" data-original="#000000" class="active-path" data-old_color="#000000" fill="#FDF6E3"/><path d="m341.519531 474.253906c-15.742187 0-28.546875-12.804687-28.546875-28.546875 0-15.742187 12.804688-28.550781 28.546875-28.550781 15.742188 0 28.550781 12.808594 28.550781 28.550781 0 15.742188-12.808593 28.546875-28.550781 28.546875zm0-37.097656c-4.714843 0-8.546875 3.835938-8.546875 8.550781 0 4.714844 3.832032 8.546875 8.546875 8.546875 4.714844 0 8.550781-3.832031 8.550781-8.546875 0-4.714843-3.835937-8.550781-8.550781-8.550781zm0 0" data-original="#000000" class="active-path" data-old_color="#000000" fill="#FDF6E3"/><path d="m63.949219 474.253906c-15.742188 0-28.550781-12.804687-28.550781-28.546875 0-15.742187 12.808593-28.550781 28.550781-28.550781 15.742187 0 28.546875 12.808594 28.546875 28.550781 0 15.742188-12.804688 28.546875-28.546875 28.546875zm0-37.097656c-4.714844 0-8.550781 3.835938-8.550781 8.550781 0 4.714844 3.835937 8.546875 8.550781 8.546875 4.710937 0 8.546875-3.832031 8.546875-8.546875 0-4.714843-3.835938-8.550781-8.546875-8.550781zm0 0" data-original="#000000" class="active-path" data-old_color="#000000" fill="#FDF6E3"/><path d="m269.925781 60.617188h-134.382812c-19.835938 0-35.972657 16.136718-35.972657 35.972656v318.820312c0 19.835938 16.136719 35.972656 35.972657 35.972656h134.382812c19.835938 0 35.972657-16.136718 35.972657-35.972656v-318.820312c0-19.835938-16.136719-35.972656-35.972657-35.972656zm-150.355469 205.382812h166.328126v99.148438c0 8.804687-7.164063 15.96875-15.972657 15.96875h-134.382812c-8.808594 0-15.972657-7.164063-15.972657-15.96875zm0-169.410156c0-8.808594 7.164063-15.972656 15.972657-15.972656h134.382812c8.808594 0 15.972657 7.164062 15.972657 15.972656v149.410156h-166.328126zm150.355469 334.792968h-134.382812c-8.808594 0-15.972657-7.164062-15.972657-15.972656v-18.035156c4.816407 2.398438 10.238282 3.746094 15.972657 3.746094h134.382812c5.734375 0 11.160157-1.347656 15.972657-3.746094v18.035156c0 8.808594-7.164063 15.972656-15.972657 15.972656zm0 0" data-original="#000000" class="active-path" data-old_color="#000000" fill="#FDF6E3"/><path d="m202.734375 197.765625c-21.515625 0-39.019531-17.507813-39.019531-39.023437 0-21.515626 17.503906-39.019532 39.019531-39.019532s39.023437 17.503906 39.023437 39.019532c0 21.515624-17.507812 39.023437-39.023437 39.023437zm0-58.042969c-10.488281 0-19.019531 8.53125-19.019531 19.019532 0 10.488281 8.53125 19.023437 19.019531 19.023437s19.023437-8.535156 19.023437-19.023437c0-10.488282-8.535156-19.019532-19.023437-19.019532zm0 0" data-original="#000000" class="active-path" data-old_color="#000000" fill="#FDF6E3"/><path d="m202.734375 358.367188c-5.523437 0-10-4.476563-10-10v-48.832032c0-5.523437 4.476563-10 10-10s10 4.476563 10 10v48.832032c0 5.523437-4.476563 10-10 10zm0 0" data-original="#000000" class="active-path" data-old_color="#000000" fill="#FDF6E3"/><path d="m395.464844 293c-.652344 0-1.300782-.058594-1.949219-.191406-.644531-.128906-1.273437-.328125-1.871094-.578125-.601562-.25-1.179687-.558594-1.730469-.921875-.539062-.359375-1.058593-.777344-1.519531-1.238282-.460937-.460937-.878906-.96875-1.242187-1.519531-.359375-.539062-.667969-1.121093-.917969-1.730469-.25-.601562-.441406-1.230468-.570313-1.871093-.128906-.640625-.199218-1.300781-.199218-1.949219s.070312-1.308594.199218-1.949219c.128907-.640625.320313-1.269531.570313-1.878906.25-.601563.558594-1.183594.917969-1.722656.363281-.550781.78125-1.058594 1.242187-1.519531.460938-.460938.976563-.878907 1.519531-1.238282.550782-.363281 1.128907-.671875 1.730469-.921875.597657-.25 1.226563-.449219 1.871094-.570312 1.289063-.257813 2.617187-.257813 3.90625 0 .640625.121093 1.269531.320312 1.871094.570312.601562.25 1.179687.558594 1.730469.921875.539062.359375 1.058593.777344 1.519531 1.238282.460937.460937.878906.96875 1.238281 1.519531.363281.539062.671875 1.121093.921875 1.722656.25.609375.441406 1.238281.570313 1.878906.128906.640625.1875 1.300781.1875 1.949219s-.058594 1.308594-.1875 1.949219c-.128907.640625-.320313 1.269531-.570313 1.871093-.25.609376-.558594 1.191407-.921875 1.730469-.359375.550781-.777344 1.058594-1.238281 1.519531-.460938.460938-.980469.878907-1.519531 1.238282-.550782.363281-1.128907.671875-1.730469.921875-.601563.25-1.230469.449219-1.871094.578125-.648437.132812-1.296875.191406-1.957031.191406zm0 0" data-original="#000000" class="active-path" data-old_color="#000000" fill="#FDF6E3"/></g> </svg>
